<svg width="11" height="11" viewBox="0 0 11 11" fill="none" xmlns="http://www.w3.org/2000/svg">
<path d="M8.5 7.5C8.22386 7.5 8 7.72386 8 8C8 8.27614 8.22386 8.5 8.5 8.5C8.77614 8.5 9 8.27614 9 8C9 7.72386 8.77614 7.5 8.5 7.5ZM2.5 7.5C2.22386 7.5 2 7.72386 2 8C2 8.27614 2.22386 8.5 2.5 8.5C2.77614 8.5 3 8.27614 3 8C3 7.72386 2.77614 7.5 2.5 7.5ZM8.5 2.5C8.22386 2.5 8 2.72386 8 3C8 3.27614 8.22386 3.5 8.5 3.5C8.77614 3.5 9 3.27614 9 3C9 2.72386 8.77614 2.5 8.5 2.5ZM2.5 2.5C2.22386 2.5 2 2.72386 2 3C2 3.27614 2.22386 3.5 2.5 3.5C2.77614 3.5 3 3.27614 3 3C3 2.72386 2.77614 2.5 2.5 2.5ZM8.5 1.5C7.11929 1.5 6 2.61929 6 4C6 4.27614 6.22386 4.5 6.5 4.5C6.77614 4.5 7 4.27614 7 4C7 3.17157 7.67157 2.5 8.5 2.5C9.32843 2.5 10 3.17157 10 4C10 4.82843 9.32843 5.5 8.5 5.5C8.22386 5.5 8 5.72386 8 6C8 6.27614 8.22386 6.5 8.5 6.5C9.88071 6.5 11 5.38071 11 4C11 2.61929 9.88071 1.5 8.5 1.5ZM2.5 6.5C1.11929 6.5 0 7.61929 0 9C0 10.3807 1.11929 11.5 2.5 11.5C3.88071 11.5 5 10.3807 5 9C5 8.72386 4.77614 8.5 4.5 8.5C4.22386 8.5 4 8.72386 4 9C4 9.82843 3.32843 10.5 2.5 10.5C1.67157 10.5 1 9.82843 1 9C1 8.17157 1.67157 7.5 2.5 7.5C2.77614 7.5 3 7.27614 3 7C3 6.72386 2.77614 6.5 2.5 6.5ZM8.5 5.5C7.11929 5.5 6 6.61929 6 8C6 9.38071 7.11929 10.5 8.5 10.5C9.88071 10.5 11 9.38071 11 8C11 6.61929 9.88071 5.5 8.5 5.5ZM2.5 1.5C1.11929 1.5 0 2.61929 0 4C0 5.38071 1.11929 6.5 2.5 6.5C3.88071 6.5 5 5.38071 5 4C5 2.61929 3.88071 1.5 2.5 1.5ZM8.5 6.5C7.67157 6.5 7 5.82843 7 5C7 4.17157 7.67157 3.5 8.5 3.5C9.32843 3.5 10 4.17157 10 5C10 5.82843 9.32843 6.5 8.5 6.5ZM2.5 6.5C1.67157 6.5 1 5.82843 1 5C1 4.17157 1.67157 3.5 2.5 3.5C3.32843 3.5 4 4.17157 4 5C4 5.82843 3.32843 6.5 2.5 6.5Z" fill="currentColor"/>
</svg>
